# xmcd
#
# Track frame offsets:
#	150
#	12591
#	22782
#	36738
#	53990
#	67934
#	84039
#	99226
#	109175
#	130282
#	142597
#	161314
#	176431
#	188947
#	201905
#	222831
#	244482
#	256350
#	268464
#	283211
#	294749
#	306138
#
# Disc length: 4246 seconds
#
# Revision: 0
# Processed by: cddbd v1.5.2PL0 Copyright (c) Steve Scherf et al.
# Submitted via: audiograbber 1.83.01
#
DISCID=45109416
DTITLE=Various Artist - Nejlepsi trampsky vyber vsech dob CD1
DYEAR=2007
DGENRE=Country
TTITLE0=Wabi Danek - Rosa na kolejich
TTITLE1=Brontosauri - Stanky
TTITLE2=Kamelot - Zachrante kone
TTITLE3=Brontosauri - Podvod
TTITLE4=500 mil
TTITLE5=Pacifik - Blizko Little Big Hornu
TTITLE6=Hlucha ucha - Montgomery
TTITLE7=Brontosauri - Hlidej lasku skalo ma
TTITLE8=Zalman - Vsech vandraku muza
TTITLE9=Michal Tucny - Buraky
TTITLE10=Duo Cervanek - Pampelisky
TTITLE11=Nezmari - Bedna od whisky
TTITLE12=Zlaty orel - Sedm zlutych kaminku
TTITLE13=Honza Vycital - Pisen tulaka
TTITLE14=Frantisek Nedved - Ascalona
TTITLE15=Golem - Aljaska. Jesse James, Doney Gal
TTITLE16=Pacifik - Blativa cesta
TTITLE17=Wabi a MIki Ryvolove - Jarni kuryr
TTITLE18=Akaty - Pisen v sedle
TTITLE19=Kapitan Kid - Zase se sejdem
TTITLE20=KTO - Zradny Banjo
TTITLE21=Hop Trop - Tri krize
EXTD=
EXTT0=
EXTT1=
EXTT2=
EXTT3=
EXTT4=
EXTT5=
EXTT6=
EXTT7=
EXTT8=
EXTT9=
EXTT10=
EXTT11=
EXTT12=
EXTT13=
EXTT14=
EXTT15=
EXTT16=
EXTT17=
EXTT18=
EXTT19=
EXTT20=
EXTT21=
PLAYORDER=
